# xmcd
#
# Track frame offsets:
#	150
#	11355
#	23708
#	36931
#	57158
#	69068
#	81394
#	93868
#	105491
#	117632
#	133272
#	144152
#	160725
#	172403
#	182617
#	191675
#	200928
#	213156
#
# Disc length: 2954 seconds
#
# Revision: 1
# Processed by: cddbd v1.4PL0 Copyright (c) Steve Scherf et al.
# Submitted via: audiograbber 1.82.02
#
DISCID=fa0b8812
DTITLE=Various Artist - Country Forever 
DYEAR=1900
DGENRE=Country
TTITLE0=Buck Owens - Down On The Corner Of Love
TTITLE1=Lynn Anderson - Stand By Your Man
TTITLE2=George Jones - Seasons Of My Heart
TTITLE3=Glen Campbell - Amazing Grace
TTITLE4=Gene Autry - Dixie Cannon Ball
TTITLE5=Faron Young - Country Girl
TTITLE6=Bobby Bare - Music City USA
TTITLE7=Patsy Cline - Let The Teardrops Fall
TTITLE8=Clifford James - Sing A Travelling Song
TTITLE9=Cash McCall - Across The Wide Missouri
TTITLE10=Johnny Paycheck - Heartbreak, Tennessee
TTITLE11=Diana Trask - Behind Closed Doors
TTITLE12=Tommy Overstreet - Welcome To My World
TTITLE13=Roy Clarke - Back In The Race
TTITLE14=Justin Tubb - Five Minutes Of The Latest Blues
TTITLE15=Conway Twitty - This Road That I Walk
TTITLE16=Willie Nelson - Shelter In My Arms
TTITLE17=Waylon Jennings - Abilene
EXTD=
EXTT0=
EXTT1=
EXTT2=
EXTT3=
EXTT4=
EXTT5=
EXTT6=
EXTT7=
EXTT8=
EXTT9=
EXTT10=
EXTT11=
EXTT12=
EXTT13=
EXTT14=
EXTT15=
EXTT16=
EXTT17=
PLAYORDER=
